<svg version="1.1" xmlns="http://www.w3.org/2000/svg" style="display: block;" viewBox="0 0 2048 2048" width="1000" height="1000" preserveAspectRatio="xMidYMid meet">
<path transform="translate(0,0)" fill="rgb(254,240,223)" d="M 403.531 809.22 C 417.496 686.062 474.434 578.058 571.96 500.567 C 675.724 417.554 808.534 379.8 940.45 395.816 C 1044.7 407.967 1148.39 444.241 1240.62 493.804 C 1295.74 523.425 1298.77 529.002 1253.39 571.288 C 1241.71 582.152 1230.3 593.288 1219.14 604.687 C 1169.74 654.792 1127.08 711.118 1092.22 772.242 C 1062.84 824.88 1041.08 880.457 1032.35 940.256 C 1031.22 947.955 1030.16 955.637 1028.84 963.307 C 1029.61 967.259 1027.72 975.805 1027.32 980.981 C 1025.24 1007.62 1020.65 1036.11 1021.28 1062.74 C 1021.34 1065.49 1022.64 1066.18 1024.32 1067.9 C 1017.01 1090.7 1004.07 1142.64 1014.06 1163.89 C 1012.43 1168.38 1012.82 1193.44 1013.94 1197.34 C 1003.14 1213.47 1010.97 1281.89 1015.03 1302.88 C 1036.86 1415.71 1109.76 1515.22 1187.22 1597.34 C 1181.17 1603.98 1184.4 1621.85 1175.67 1634.71 C 1191.02 1649.12 1206.79 1663.08 1222.97 1676.56 C 1237.73 1688.98 1276.21 1712.71 1253.77 1733.58 C 1046.41 1926.49 713.347 1889.54 506.471 1715.05 C 394.359 1620.49 313.371 1485.22 301.095 1337.29 C 293.011 1240.45 312.406 1143.29 357.053 1056.97 C 366.218 1039.16 378.793 1016.29 391.73 1001 C 355.325 996.789 328.823 993.104 293.046 979.848 C 267.868 972.081 210.117 942.584 199.031 918.391 C 183.48 884.452 278.392 836.184 302.579 827.054 C 327.651 817.59 380.997 799.76 403.531 809.22 z"/>
<path transform="translate(0,0)" fill="rgb(1,98,138)" d="M 431.288 996.62 C 554.798 990.174 675.773 1033.29 767.371 1116.39 C 845.354 1186.74 899.246 1282 956.474 1368.83 C 1018.24 1462.54 1091.68 1559.72 1175.67 1634.71 C 1191.02 1649.12 1206.79 1663.08 1222.97 1676.56 C 1237.73 1688.98 1276.21 1712.71 1253.77 1733.58 C 1046.41 1926.49 713.347 1889.54 506.471 1715.05 C 394.359 1620.49 313.371 1485.22 301.095 1337.29 C 293.011 1240.45 312.406 1143.29 357.053 1056.97 C 366.218 1039.16 378.793 1016.29 391.73 1001 C 397.97 999.07 423.667 997.247 431.288 996.62 z"/>
<path transform="translate(0,0)" fill="rgb(1,98,138)" d="M 403.531 809.22 C 417.496 686.062 474.434 578.058 571.96 500.567 C 675.724 417.554 808.534 379.8 940.45 395.816 C 1044.7 407.967 1148.39 444.241 1240.62 493.804 C 1295.74 523.425 1298.77 529.002 1253.39 571.288 C 1241.71 582.152 1230.3 593.288 1219.14 604.687 C 1169.74 654.792 1127.08 711.118 1092.22 772.242 C 1062.84 824.88 1041.08 880.457 1032.35 940.256 C 1031.22 947.955 1030.16 955.637 1028.84 963.307 C 1026.62 951.54 1028.6 930.689 1027.94 917.486 C 1021.89 792.096 952.455 670.243 833.547 620.834 C 697.105 564.137 532.561 616.465 449.73 737.612 C 431.733 763.933 420.985 786.688 408.944 815.901 C 406.064 813.573 405.492 812.291 403.531 809.22 z"/>
<path transform="translate(0,0)" fill="rgb(254,124,1)" d="M 391.73 1001 C 355.325 996.789 328.823 993.104 293.046 979.848 C 267.868 972.081 210.117 942.584 199.031 918.391 C 183.48 884.452 278.392 836.184 302.579 827.054 C 327.651 817.59 380.997 799.76 403.531 809.22 C 405.492 812.291 406.064 813.573 408.944 815.901 C 451.751 865.97 456.643 937.547 431.288 996.62 C 423.667 997.247 397.97 999.07 391.73 1001 z"/>
<path transform="translate(0,0)" fill="rgb(1,98,138)" d="M 694.538 825.285 C 736.577 818.973 775.821 847.801 782.369 889.804 C 788.917 931.807 760.31 971.212 718.344 977.995 C 676.044 984.832 636.257 955.947 629.657 913.61 C 623.058 871.272 652.165 831.648 694.538 825.285 z"/>
<path transform="translate(0,0)" fill="rgb(255,255,255)" d="M 725.144 854.109 C 738.497 852.985 750.249 862.863 751.439 876.21 C 752.629 889.558 742.81 901.358 729.469 902.615 C 716.033 903.88 704.131 893.977 702.933 880.535 C 701.734 867.094 711.696 855.241 725.144 854.109 z"/>
<path transform="translate(0,0)" fill="rgb(19,144,166)" d="M 1024.32 1067.9 C 1074.24 927.912 1261.33 688.957 1373.54 589.163 C 1419.37 548.409 1469.64 512.78 1525.21 486.515 C 1622.13 440.702 1726.13 427.658 1832.18 437.944 C 1850.6 439.732 1879.91 441.761 1896.91 448.102 C 1900.2 449.329 1903.16 450.864 1904.75 454.165 C 1909.07 463.18 1904.39 483.08 1902.77 493 C 1888.2 581.954 1856.68 673.878 1817.39 754.709 C 1736.28 921.594 1593.39 1084.34 1413.87 1146.02 C 1311.52 1181.19 1192.83 1179.31 1085.83 1173.7 C 1070.25 1172.89 1030.29 1172.07 1017.06 1165.59 C 1016.02 1165.08 1015.04 1164.5 1014.06 1163.89 C 1004.07 1142.64 1017.01 1090.7 1024.32 1067.9 z"/>
<path transform="translate(0,0)" fill="rgb(254,124,1)" d="M 1013.94 1197.34 C 1035.04 1195.06 1060.41 1196.52 1082 1197.02 C 1110 1197.76 1138.02 1198.02 1166.03 1197.78 C 1312.95 1196.91 1436.83 1177.65 1559.87 1278.51 C 1671.61 1370.1 1748.87 1525.5 1782.21 1663.42 C 1790.03 1697.02 1795.7 1731.09 1799.18 1765.41 C 1806.83 1838.05 1804.08 1833.26 1734.79 1838.41 C 1525.97 1853.95 1340.94 1749.46 1196.49 1606.64 C 1193.38 1603.57 1190.29 1600.46 1187.22 1597.34 C 1109.76 1515.22 1036.86 1415.71 1015.03 1302.88 C 1010.97 1281.89 1003.14 1213.47 1013.94 1197.34 z"/>
<path transform="translate(0,0)" fill="rgb(254,124,1)" d="M 1056.01 144.187 C 1063.43 143.417 1071.64 143.596 1078.94 145.232 C 1093.58 148.522 1106.24 157.636 1114.01 170.471 C 1133.97 203.033 1118.17 227.009 1110.1 260.424 C 1100.03 302.098 1124.66 317.26 1160.95 295.853 C 1169.82 290.618 1181.88 283.383 1191.77 279.767 C 1214.43 271.479 1241.93 278.284 1255.58 298.95 C 1263.48 311.089 1266.17 325.896 1263.04 340.038 C 1257.24 366.904 1226.12 409.932 1203.55 426.694 C 1190.82 435.852 1173.41 427.162 1161.08 421.312 C 1120.53 402.072 1079.14 389.651 1035.75 378.66 C 988.051 367.977 935.304 361.264 886.656 360.867 C 837.904 360.468 831.469 374.668 812.74 322.453 C 801.069 289.915 789.863 252.083 809.603 220.073 C 817.89 206.476 831.338 196.821 846.872 193.318 C 876.035 186.972 896.889 207.152 911.818 229.163 C 918.517 239.038 928.345 254.82 938.659 260.898 C 945.422 264.928 953.535 266.032 961.13 263.955 C 985.595 257.095 990.104 226.03 997.108 204.9 C 1000.23 195.47 1004.36 186.406 1009.43 177.864 C 1021.49 157.967 1033.99 149.649 1056.01 144.187 z"/>
</svg>