<svg version="1.1" xmlns="http://www.w3.org/2000/svg" style="display: block;" viewBox="44 448 1948 602" width="1948" height="602" preserveAspectRatio="xMidYMid meet">
<g transform="translate(40,453)">
<path fill="rgb(254,240,223)" d="M97.2221 232.075C101.313 195.994 117.994 164.352 146.567 141.65C176.966 117.329 215.875 106.269 254.523 110.961C285.065 114.521 315.442 125.148 342.463 139.668C358.611 148.346 359.499 149.98 346.204 162.369C342.782 165.552 339.44 168.814 336.17 172.154C321.697 186.833 309.199 203.335 298.986 221.242C290.379 236.663 284.004 252.946 281.446 270.465C281.115 272.72 280.805 274.971 280.418 277.218C280.644 278.376 280.09 280.88 279.973 282.396C279.363 290.2 278.019 298.547 278.203 306.349C278.221 307.154 278.602 307.357 279.094 307.861C276.952 314.54 273.161 329.757 276.088 335.983C275.61 337.298 275.725 344.64 276.053 345.782C272.889 350.508 275.183 370.553 276.372 376.702C282.768 409.758 304.125 438.911 326.818 462.97C325.046 464.915 325.992 470.151 323.435 473.918C327.932 478.14 332.552 482.23 337.292 486.179C341.616 489.818 352.89 496.77 346.316 502.884C285.566 559.401 187.989 548.575 127.38 497.455C94.535 469.752 70.808 430.122 67.2115 386.783C64.8432 358.412 70.5253 329.947 83.6055 304.658C86.2905 299.441 89.9746 292.74 93.7648 288.261C83.0992 287.027 75.335 285.948 64.8534 282.064C57.4771 279.789 40.5578 271.147 37.31 264.059C32.754 254.116 60.5603 239.975 67.6463 237.3C74.9916 234.528 90.6203 229.304 97.2221 232.075Z"/>
<path fill="rgb(0,97,140)" d="M105.354 286.978C141.539 285.089 176.981 297.721 203.816 322.067C226.663 342.677 242.451 370.585 259.217 396.024C277.313 423.478 298.828 451.949 323.435 473.918C327.932 478.14 332.552 482.23 337.292 486.179C341.616 489.818 352.89 496.77 346.316 502.884C285.566 559.401 187.989 548.576 127.38 497.456C94.5351 469.752 70.8081 430.123 67.2117 386.784C64.8433 358.413 70.5254 329.948 83.6056 304.659C86.2907 299.441 89.9748 292.741 93.7649 288.261C95.593 287.696 103.121 287.162 105.354 286.978Z"/>
<path fill="rgb(0,97,140)" d="M97.2222 232.075C101.313 195.994 117.995 164.352 146.567 141.65C176.966 117.329 215.875 106.269 254.523 110.961C285.065 114.521 315.443 125.148 342.463 139.668C358.612 148.346 359.499 149.98 346.204 162.369C342.782 165.552 339.44 168.814 336.17 172.154C321.697 186.833 309.199 203.335 298.987 221.242C290.379 236.663 284.004 252.946 281.446 270.465C281.115 272.72 280.805 274.971 280.418 277.218C279.768 273.771 280.348 267.662 280.154 263.794C278.382 227.059 258.04 191.359 223.203 176.884C183.23 160.274 135.024 175.604 110.757 211.096C105.484 218.808 102.336 225.474 98.808 234.033C97.9643 233.351 97.7967 232.975 97.2222 232.075Z"/>
<path fill="rgb(254,119,2)" d="M93.7648 288.262C83.0992 287.028 75.335 285.948 64.8534 282.065C57.4771 279.789 40.5578 271.148 37.31 264.06C32.754 254.117 60.5603 239.976 67.6463 237.301C74.9916 234.528 90.6203 229.305 97.2221 232.076C97.7966 232.976 97.9642 233.351 98.8079 234.033C111.349 248.702 112.782 269.672 105.354 286.978C103.121 287.162 95.5929 287.696 93.7648 288.262Z"/>
<path fill="rgb(0,97,140)" d="M182.478 236.783C194.794 234.934 206.291 243.38 208.21 255.685C210.128 267.991 201.747 279.535 189.452 281.523C177.06 283.526 165.403 275.063 163.47 262.66C161.536 250.256 170.064 238.647 182.478 236.783Z"/>
<path fill="rgb(255,255,255)" d="M191.444 245.227C195.356 244.897 198.799 247.791 199.148 251.702C199.497 255.612 196.62 259.069 192.712 259.437C188.775 259.808 185.288 256.907 184.937 252.969C184.586 249.031 187.505 245.558 191.444 245.227Z"/>
<path fill="rgb(20,147,171)" d="M279.094 307.862C293.719 266.85 348.53 196.844 381.404 167.607C394.831 155.667 409.559 145.229 425.839 137.534C454.234 124.113 484.702 120.291 515.772 123.305C521.168 123.828 529.755 124.423 534.736 126.281C535.699 126.64 536.567 127.09 537.032 128.057C538.298 130.698 536.927 136.528 536.452 139.434C532.184 165.495 522.949 192.426 511.439 216.107C487.676 264.999 445.814 312.678 393.22 330.749C363.235 341.052 328.462 340.502 297.114 338.858C292.55 338.621 280.843 338.381 276.967 336.482C276.662 336.333 276.375 336.163 276.088 335.984C273.161 329.759 276.952 314.542 279.094 307.862Z"/>
<path fill="rgb(254,119,2)" d="M276.053 345.783C282.234 345.115 289.667 345.543 295.992 345.689C304.195 345.906 312.404 345.982 320.61 345.912C363.653 345.657 399.946 340.014 435.993 369.563C468.73 396.396 491.364 441.924 501.132 482.33C503.423 492.174 505.084 502.155 506.104 512.21C508.345 533.491 507.539 532.088 487.239 533.596C426.062 538.149 371.854 507.537 329.534 465.695C328.623 464.796 327.718 463.884 326.818 462.97C304.125 438.912 282.768 409.758 276.372 376.703C275.183 370.553 272.889 350.508 276.053 345.783Z"/>
<path fill="rgb(254,119,2)" d="M288.378 37.242C290.552 37.0164 292.957 37.0688 295.095 37.5481C299.384 38.512 303.093 41.1821 305.37 44.9423C311.218 54.482 306.589 61.5062 304.224 71.2958C301.274 83.505 308.49 87.9469 319.122 81.6754C321.72 80.1417 325.254 78.022 328.151 76.9627C334.79 74.5345 342.846 76.5282 346.845 82.5827C349.16 86.139 349.948 90.477 349.031 94.6202C347.332 102.491 338.215 115.097 331.602 120.008C327.873 122.691 322.772 120.145 319.16 118.431C307.28 112.794 295.154 109.155 282.442 105.935C268.468 102.805 253.015 100.839 238.762 100.722C224.479 100.606 222.594 104.766 217.107 89.4683C213.688 79.9357 210.405 68.8521 216.188 59.4742C218.616 55.4907 222.556 52.6621 227.107 51.6358C235.651 49.7766 241.76 55.6887 246.134 62.1373C248.097 65.0303 250.976 69.654 253.997 71.4346C255.979 72.6153 258.356 72.9387 260.581 72.3302C267.748 70.3205 269.069 61.2194 271.121 55.029C272.036 52.2663 273.246 49.6108 274.731 47.1083C278.264 41.2791 281.927 38.8422 288.378 37.242Z"/>
<path fill-rule="evenodd" clip-rule="evenodd" fill="rgb(253,238,217)" d="M1847.5 270.418C1866.87 270.33 1890.02 269.706 1909.05 270.694C1910.23 284.785 1910.55 332.672 1907.63 345.011C1905.74 353.171 1902.1 360.823 1896.96 367.441C1884.51 383.331 1870.17 387.621 1851.24 389.88C1835.96 390.189 1821.07 386.045 1809.24 376.119C1797.1 365.883 1789.59 351.194 1788.4 335.36C1787.01 319.174 1792.23 303.114 1802.88 290.844C1815.07 276.679 1829.46 271.739 1847.5 270.418ZM1845.65 303.385C1853.11 302.561 1860.58 304.928 1866.2 309.904C1871.83 314.879 1875.09 322 1875.19 329.509C1875.35 342.792 1865.7 354.165 1852.57 356.16C1843.04 357.608 1833.47 353.791 1827.55 346.18C1821.64 338.57 1820.3 328.356 1824.05 319.477C1827.81 310.599 1836.07 304.443 1845.65 303.385Z"/>
<path fill-rule="evenodd" clip-rule="evenodd" fill="rgb(253,238,217)" d="M1007.76 273.314C1026.31 272.286 1055.14 272.167 1073.39 274.46C1078.66 275.122 1076.16 337.508 1074.92 343.973C1073.46 351.656 1070.55 358.99 1066.34 365.579C1056.36 380.981 1042.21 388.326 1024.72 391.94C943.937 398.562 927.273 289.793 1007.76 273.314ZM1008.27 307.147C1022.29 303.112 1036.95 311.115 1041.14 325.094C1045.33 339.073 1037.48 353.819 1023.55 358.159C1014.4 361.008 1004.43 358.723 997.43 352.174C990.44 345.625 987.5 335.823 989.74 326.507C991.98 317.19 999.06 309.797 1008.27 307.147Z"/>
<path fill-rule="evenodd" clip-rule="evenodd" fill="rgb(253,238,217)" d="M1572.58 270.276C1590.77 268.385 1609.58 275.133 1622.3 288.353C1640.47 307.237 1639.48 327.018 1639.43 351.315C1639.46 363.812 1639.3 376.308 1638.95 388.8C1623.21 389.539 1602.59 388.994 1586.5 388.997C1569.47 389.265 1557.34 388.51 1542.9 377.988C1530.15 368.83 1521.6 354.94 1519.16 339.428C1516.56 323.368 1520.57 306.94 1530.29 293.892C1541.02 279.62 1555.3 272.867 1572.58 270.276ZM1574.49 303.364C1583.96 301.934 1593.46 305.718 1599.35 313.264C1605.24 320.81 1606.6 330.945 1602.92 339.78C1599.23 348.616 1591.07 354.778 1581.56 355.903C1567.19 357.603 1554.11 347.459 1552.18 333.114C1550.25 318.769 1560.18 305.526 1574.49 303.364Z"/>
<path fill="rgb(253,238,217)" d="M679.174 200.803L680.104 201.088C680.558 201.643 681.011 202.198 681.464 202.753C682.192 224.483 681.85 287.12 681.898 304.546C691.336 294.668 705.131 279.362 715.18 270.852C721.997 270.19 752.566 268.875 756.759 271.944C756.769 272.277 756.797 272.61 756.788 272.943C756.543 281.271 714.175 320.942 705.821 329.704C719.264 344.882 734.984 360.833 749.044 375.647C752.7 379.186 757.293 382.174 755.213 387.326C749.178 390.962 724.949 388.981 716.363 388.844C709.295 384.791 687.99 361.12 681.6 353.973C681.776 356.353 681.876 358.737 681.901 361.124C682.011 383.931 666.507 389.086 647.166 388.901C646.757 368.736 645.107 235.148 649.211 226.34C655.051 213.806 666.656 205.726 679.174 200.803Z"/>
<path fill="rgb(253,238,217)" d="M1199.7 270.301C1222.15 268.747 1244.17 281.612 1255.84 300.393C1260.21 307.417 1262.38 312.423 1260.48 320.823C1256.09 326.601 1202.8 347.479 1198.3 343.582C1173.58 322.162 1204.03 314.687 1220.05 309.44C1218.79 308.585 1217.49 307.79 1216.16 307.059C1185.06 289.657 1157.77 337.311 1194.01 354.5C1214.11 360.403 1215.5 346.844 1232.34 349.552C1237.05 350.31 1249.43 358.836 1251.9 363.073C1250.67 375.293 1224.01 387.233 1212.56 389.018C1197.12 391.538 1181.32 387.761 1168.68 378.533C1155.84 369.217 1147.26 355.155 1144.84 339.476C1139.33 302.316 1163.62 275.278 1199.7 270.301Z"/>
<path fill="rgb(253,238,217)" d="M881.635 270.391C896.838 269.786 913.239 276.527 923.971 287.354C942.543 306.088 941.203 327.173 941.085 351.607L940.862 388.953C919.865 389.436 906.699 389.962 906.777 363.3C906.851 338.062 915.61 312.492 884.84 303.668C852.152 304.932 857.824 337.637 858.724 360.648C859.879 390.174 850.484 389.468 824.605 388.866C823.698 377.43 824.017 324.268 826.181 315.018C828.211 306.204 832.267 297.984 838.027 291.01C849.616 277.041 864.152 271.999 881.635 270.391Z"/>
<path fill="rgb(253,238,217)" d="M1711.95 270.367C1727.7 268.701 1745 275.249 1756.18 286.484C1775.05 305.444 1774.12 325.781 1774.05 350.601L1773.83 388.911C1771.14 388.972 1760.71 389.406 1758.82 388.981C1713.84 378.862 1766.52 320.902 1719.53 304.019C1718.38 303.951 1717.22 303.913 1716.06 303.905C1688.76 303.792 1689.42 330.522 1690.35 350.403C1691.98 385.041 1691.79 389.687 1657.08 388.927C1656.98 374.308 1655.87 328.633 1658.31 317.007C1660.1 308.147 1663.91 299.818 1669.44 292.667C1680.45 278.527 1694.63 272.487 1711.95 270.367Z"/>
<path fill="rgb(253,238,217)" d="M1307.68 200.941L1310.09 201.58C1312.17 207.252 1311.07 260.387 1311.03 270.302C1321.91 270.27 1332.79 270.321 1343.67 270.453C1343.17 296.012 1338.24 304.346 1311.05 304.106C1310.69 333.066 1306.88 353.574 1343.6 355.511C1344 365.197 1343.64 376.928 1343.57 386.77C1343.25 388.089 1343.22 387.674 1342.05 388.918C1314.31 390.1 1291.55 378.435 1281.23 351.627C1279.02 345.833 1277.61 339.764 1277.05 333.589C1275.46 316.606 1276.65 296.315 1276.78 279.011C1277.06 243.879 1267.6 216.136 1307.68 200.941Z"/>
<path fill="rgb(253,238,217)" d="M1125.95 200.828L1127.43 201.123C1130.51 204.449 1128.99 223.567 1129 229.425L1129.09 284.468L1129.14 335.311C1129.16 362.856 1133.89 387.279 1097.78 389.239C1096.75 388.88 1096.03 388.935 1095.49 387.874C1093.72 384.371 1094.24 251.11 1094.74 238.499C1094.9 234.58 1095.18 230.117 1096.63 226.438C1101.47 214.101 1114.14 205.544 1125.95 200.828Z"/>
<path fill="rgb(253,238,217)" d="M1499.32 200.748C1501.47 201.278 1500.51 200.808 1502.04 202.517C1503.54 234.333 1501.55 270.443 1502.3 302.785C1501.64 324.619 1503.49 347.287 1501.38 368.998C1499.83 384.897 1483.46 388.787 1470.83 389.182C1469.12 388.732 1469.89 388.967 1468.39 387.414C1467.31 378.551 1468.13 367.76 1468.13 358.694C1468.16 318.03 1467.96 277.348 1468.08 236.686C1468.13 218.553 1484 206.889 1499.32 200.748Z"/>
<path fill="rgb(253,238,217)" d="M1894.84 390.27C1898.83 389.742 1904.88 389.727 1909.09 389.6C1909.18 392.645 1909.17 395.692 1909.05 398.736C1908.4 413.649 1900.51 428.571 1889.47 438.456C1877.26 449.195 1861.3 454.681 1845.07 453.72C1825.24 452.549 1812.06 443.811 1799.42 429.432C1781.57 403.119 1782.44 377.385 1820.88 396.532C1824.51 406.149 1828.41 414.117 1838.64 418.499C1845.04 421.222 1852.27 421.253 1858.69 418.585C1869.59 414.09 1872.94 405.959 1877.05 396.127C1883.4 392.751 1887.87 391.646 1894.84 390.27Z"/>
<path fill="rgb(253,238,217)" d="M954.72 395.078C966.493 394.798 984.22 391.654 990.32 403.262C992.8 406.659 996.46 413.764 999.87 416.136C1016.53 427.886 1034.69 417.194 1042.9 400.797C1046.55 393.504 1072.02 392.998 1075.95 396.394C1077.6 403.08 1072.19 416.43 1069.22 422.536C1066.98 426.063 1065.11 428.812 1062.39 432.019C1051.67 444.691 1036.29 452.499 1019.74 453.673C1003.37 454.835 987.21 449.402 974.87 438.585C961.689 426.942 955.662 412.415 954.72 395.078Z"/>
<path fill="rgb(253,238,217)" d="M798.314 271.193C801.988 270.594 802.401 270.514 806.062 270.858C807.901 272.829 807.527 276.243 807.587 278.919C807.86 290.888 809.502 380.37 804.756 385.007C799.262 390.375 788.87 389.038 781.75 388.986C777.781 389.103 776.547 389.475 773.896 386.423C772.132 379.964 771.823 299.213 775.448 288.977C778.529 280.277 789.294 274.382 798.314 271.193Z"/>
<path fill="rgb(253,238,217)" d="M1380.29 305.177C1400.34 303.874 1429.91 304.849 1450.65 304.935C1450.39 320.907 1447.03 330.33 1431.83 337.509C1424.23 338.336 1368.48 338.91 1362.05 337.424C1359.77 332.698 1362.09 324.921 1363.81 320.115C1366.62 312.234 1373.07 308.386 1380.29 305.177Z"/>
<path fill="rgb(254,119,2)" d="M787.796 206.447C793.514 205.422 799.39 207.028 803.792 210.819C808.194 214.61 810.653 220.183 810.487 225.99C810.226 235.145 803.565 242.855 794.545 244.442C784.061 246.287 774.064 239.294 772.203 228.813C770.341 218.333 777.319 208.325 787.796 206.447Z"/>
</g>
</svg>
