<svg version="1.1" xmlns="http://www.w3.org/2000/svg" style="display: block;" viewBox="44 448 1948 602" width="1948" height="602" preserveAspectRatio="xMidYMid meet">
<path transform="translate(0,0)" fill="rgb(0,0,0)" d="M 154.871 743.241 C 170.868 742.588 186.847 744.898 202.003 750.055 C 277.522 775.105 314.434 857.282 363.78 914.879 C 373.758 926.686 384.441 937.877 395.773 948.391 C 398.679 951.042 410.529 961.068 411.202 963.542 C 414.476 975.582 373.884 993.121 366.564 996.042 C 353.619 1001.2 340.082 1004.74 326.265 1006.55 C 277.476 1012.92 225.622 996.305 186.946 966.537 C 149.86 937.9 125.544 895.811 119.26 849.379 C 114.99 816.024 122.929 772.575 143.653 745.715 C 147.558 744.638 150.923 743.998 154.871 743.241 z"/>
<path transform="translate(0,0)" fill="rgb(0,0,0)" d="M 564.975 568.437 C 576.274 567.382 595.866 569.291 607.14 570.816 C 607.17 571.463 607.189 572.112 607.196 572.76 C 607.778 628.111 569.108 696.957 530.841 735.253 C 484.654 781.476 445.74 796.604 381.502 797.528 C 363.698 797.025 353.443 795.939 335.866 793.001 C 334.974 747.57 379.4 684.977 408.951 652.666 C 454.432 602.939 496.893 572.538 564.975 568.437 z"/>
<path transform="translate(0,0)" fill="rgb(0,0,0)" d="M 337.762 804.206 C 353.191 803.463 370.887 804.832 386.453 804.404 C 434.665 803.078 470.348 800.792 511.532 832.783 C 551.682 863.972 575.671 911.812 582.129 961.856 C 583.153 969.789 585.499 1000.17 581.296 1005.56 C 480.639 1018.43 360.466 937.797 337.655 837.051 C 335.993 829.711 333.428 810.749 337.762 804.206 z"/>
<path transform="translate(0,0)" fill="rgb(0,0,0)" d="M 296.434 556.444 C 298.406 556.478 300.378 556.534 302.348 556.611 C 335.778 557.96 387.51 573.277 415.427 594.869 C 421.663 599.693 412.06 607.72 407.903 611.535 C 374.308 642.37 343.942 682.984 339.994 729.854 C 339.178 724.084 339.272 716.672 338.385 710.27 C 333.925 678.085 322.366 655.659 297 635.881 C 253.373 605.756 196.936 616.664 164.11 657.459 C 156.583 666.813 152.483 675.438 147.684 686.213 C 155.787 605.053 219.053 559.332 296.434 556.444 z"/>
<path transform="translate(0,0)" fill="rgb(0,0,0)" fill-rule="evenodd" d="M 1887.36 723.258 C 1896.9 722.511 1949.14 721.946 1955.96 724.402 C 1959.9 729.839 1958.23 787.004 1956.58 795.385 C 1955.1 802.975 1952.17 810.208 1947.96 816.689 C 1938.24 831.496 1924.03 839.294 1907.06 842.964 C 1889.05 844.266 1875.86 843.404 1860.44 832.793 C 1847.39 823.791 1838.47 809.962 1835.65 794.365 C 1832.62 778.239 1836.27 761.574 1845.78 748.198 C 1856.02 733.804 1870.2 726.099 1887.36 723.258 z M 1888.97 757.397 C 1903.15 753.474 1917.81 761.873 1921.59 776.092 C 1925.37 790.31 1916.83 804.884 1902.58 808.53 C 1888.52 812.126 1874.19 803.726 1870.45 789.703 C 1866.72 775.68 1874.98 761.267 1888.97 757.397 z"/>
<path transform="translate(0,0)" fill="rgb(0,0,0)" fill-rule="evenodd" d="M 1046.14 726.204 C 1057.83 724.953 1100.99 724.893 1114.38 726.774 C 1115.78 727.039 1117.28 730.759 1117.26 731.792 C 1116.91 758.507 1123.04 795.789 1108.01 818.942 C 1097.6 834.969 1082.71 842.422 1066.22 845.966 C 1052.39 848.273 1037 845.656 1024.91 838.453 C 1010.75 830.059 1000.57 816.306 996.684 800.308 C 987.504 763.817 1011.26 734.614 1046.14 726.204 z M 1050.24 760.177 C 1064.48 756.976 1078.65 765.825 1082.01 780.025 C 1085.38 794.225 1076.7 808.493 1062.54 812.027 C 1053.23 814.35 1043.39 811.49 1036.78 804.538 C 1030.17 797.586 1027.8 787.616 1030.59 778.436 C 1033.38 769.255 1040.88 762.281 1050.24 760.177 z"/>
<path transform="translate(0,0)" fill="rgb(0,0,0)" fill-rule="evenodd" d="M 1616.56 723.268 C 1638.29 721.795 1655.1 726.864 1670.06 743.261 C 1687.5 762.376 1686.15 784.72 1685.95 808.805 C 1685.86 820.12 1685.93 831.435 1685.21 842.818 C 1670.46 843.482 1651.32 843.059 1636.25 843.105 C 1618.08 843.509 1604.69 843.309 1588.96 832.416 C 1575.56 823.112 1566.49 808.781 1563.83 792.686 C 1561.3 776.843 1565.18 760.645 1574.61 747.665 C 1585.03 733.484 1599.41 725.874 1616.56 723.268 z M 1617 757.348 C 1626.22 754.77 1636.11 757.353 1642.88 764.107 C 1649.66 770.862 1652.28 780.742 1649.73 789.965 C 1647.18 799.188 1639.87 806.326 1630.59 808.646 C 1616.51 812.164 1602.22 803.721 1598.5 789.694 C 1594.79 775.667 1603.03 761.258 1617 757.348 z"/>
<path transform="translate(0,0)" fill="rgb(0,0,0)" d="M 717.996 651.947 L 719.106 652.819 C 721.707 660.609 720.008 743.159 719.986 756.516 C 730.319 746.15 745.393 725.451 758.326 723.567 C 763.51 722.812 790.419 721.635 794.99 724.631 L 795.037 726.894 C 790.735 736.212 752.744 773.478 743.588 783.003 C 758.084 799.253 775.099 816.308 790.291 832.134 C 793.402 835.445 795.939 837.042 793.491 841.303 C 786.168 844.722 762.678 843.007 753.291 842.77 C 746.986 838.655 726.513 816.246 720.175 809.511 C 719.746 834.243 708.531 843.025 684.385 842.823 C 682.955 817.242 684.721 786.046 684.09 759.7 C 684.306 735.535 683.533 711.182 684.363 687.05 C 684.921 670.815 704.38 656.867 717.996 651.947 z"/>
<path transform="translate(0,0)" fill="rgb(0,0,0)" d="M 1239.96 723.354 C 1252.72 722.15 1265.53 724.979 1276.6 731.442 C 1290.27 739.594 1299.98 752.244 1304.19 767.783 C 1304.61 769.359 1305.01 772.572 1303.85 773.725 C 1294.49 783.015 1253.97 796.033 1242.76 798.475 C 1212.24 777.128 1245.9 768.895 1262.18 762.272 L 1260.94 761.526 C 1226.8 741.235 1199.72 790.842 1236.72 808.381 C 1237.83 808.648 1238.94 808.879 1240.07 809.073 C 1252.37 811.119 1258.83 806.218 1268.24 799.578 C 1275.06 802.475 1291.43 810.856 1295 817.147 C 1294.99 818.844 1294.54 819.908 1293.43 821.19 C 1272.21 845.649 1235.2 851.018 1209.33 831.856 C 1196.54 822.331 1188.06 808.122 1185.75 792.349 C 1183.3 775.971 1187.62 759.301 1197.73 746.184 C 1208.64 732.087 1222.61 725.462 1239.96 723.354 z"/>
<path transform="translate(0,0)" fill="rgb(0,0,0)" d="M 1755.42 723.303 C 1758.59 722.95 1762.59 723.021 1765.77 723.165 C 1781.05 723.804 1795.41 730.623 1805.57 742.059 C 1823.02 761.427 1821.67 781.158 1821.59 805.423 C 1821.55 818.001 1821.58 830.161 1821 842.778 C 1780.77 844.246 1785.02 830.867 1786.07 796.327 C 1786.59 779.181 1786.58 766.862 1769.23 758.569 C 1764.41 757.337 1755.48 756.84 1750.43 759.744 C 1722.33 775.895 1752.92 827.529 1726.74 842.11 C 1723.71 843.8 1708.1 843.285 1704.23 841.591 C 1703.62 839.776 1703.17 837.91 1702.88 836.014 C 1701.83 829.02 1702.07 815.542 1702.14 808.183 C 1702.34 786.085 1700.01 764.79 1714.5 746.181 C 1725.56 731.982 1738.08 725.738 1755.42 723.303 z"/>
<path transform="translate(0,0)" fill="rgb(0,0,0)" d="M 918.521 723.367 C 920.708 723.211 924.786 723.28 926.994 723.412 C 942.452 724.303 956.882 731.446 966.964 743.197 C 983.94 762.803 981.952 783.317 981.971 807.575 C 981.98 819.16 982.124 831.124 981.298 842.673 C 961.784 843.521 947.109 845.146 946.25 819.177 C 945.445 794.82 955.285 768.613 927.045 757.863 C 896.033 754.072 897.253 785.612 898.229 806.656 C 899.466 833.334 897.878 847.545 866.796 842.356 C 864.214 840.197 863.144 837.721 863.03 834.244 C 861.45 786.03 856.34 729.766 918.521 723.367 z"/>
<path transform="translate(0,0)" fill="rgb(0,0,0)" d="M 1352.21 651.781 L 1353.16 652.259 C 1355.81 656.334 1354.75 713.568 1354.73 722.943 L 1387.53 722.978 C 1387.66 748.523 1380.72 757.035 1354.72 757.738 C 1354.61 788.896 1350.32 804.994 1387.31 809.191 C 1387.48 820.043 1387.55 830.897 1387.5 841.75 C 1386.89 842.255 1387.07 842.158 1386.12 842.603 C 1380.63 845.201 1367.15 841.815 1361.58 839.929 C 1345.76 834.569 1332.93 824.007 1325.51 808.925 C 1322.18 802.14 1320.21 794.995 1319.35 787.495 C 1317.94 775.141 1317.82 687.081 1320.59 679.721 C 1325.56 666.489 1339.79 657.053 1352.21 651.781 z"/>
<path transform="translate(0,0)" fill="rgb(0,0,0)" d="M 356.688 480.227 C 387.561 484.388 366.212 513.497 372.076 528.029 C 380.344 534.624 392.594 518.375 405.33 520.552 C 431.958 523.603 407.902 571.997 392.807 567.149 C 378.791 562.647 361.898 555.499 346.555 551.404 C 319.792 546.76 312.739 546.064 285.309 546.379 C 277.233 532.867 266.248 500.618 290.501 495.053 C 305.882 491.525 308.469 509.255 316.942 514.763 C 332.245 524.712 335.765 496.829 340.823 488.982 C 345.07 482.571 350.262 481.481 356.688 480.227 z"/>
<path transform="translate(0,0)" fill="rgb(0,0,0)" d="M 1546.74 652.019 C 1547.78 653.307 1548.07 655.116 1548.06 656.784 C 1547.67 712.203 1549.57 767.951 1547.28 823.276 C 1547.16 826.278 1543.15 831.269 1541.03 833.511 C 1533.58 841.417 1524.32 842.657 1514.23 842.975 L 1513.22 841.9 C 1510.94 831.361 1512.48 800.085 1512.67 784.047 C 1513.03 753.598 1510.68 708.42 1514.68 678.157 C 1515.82 669.56 1537.48 655.079 1546.74 652.019 z"/>
<path transform="translate(0,0)" fill="rgb(0,0,0)" d="M 1168.95 651.874 C 1171.11 653.37 1171.05 656.297 1171.08 658.732 C 1171.73 704.117 1171.11 749.6 1171.36 794.981 C 1171.51 822.723 1171.7 841.355 1138.06 843.133 C 1137.28 842.695 1136.24 842.373 1136.22 841.514 C 1135.17 790.677 1135.92 739.409 1135.91 688.45 C 1135.91 671.038 1154.32 657.686 1168.95 651.874 z"/>
<path transform="translate(0,0)" fill="rgb(0,0,0)" d="M 1947.53 843.284 C 1951.67 842.889 1953.28 842.68 1956.33 844.709 C 1958.07 847.699 1958.84 850.727 1958.36 854.17 C 1953.6 887.75 1922.55 912.85 1888.46 908.485 C 1869.32 906.034 1856.36 896.632 1844.63 881.772 C 1836.41 868.738 1834.72 860.095 1834.91 845.181 C 1842.65 844.79 1848.7 844.217 1856.38 845.473 C 1872.6 846.419 1872.67 870.977 1887.12 873.983 C 1906.96 878.11 1918.86 867.636 1923.83 850.507 C 1932.84 845.891 1937.47 844.694 1947.53 843.284 z"/>
<path transform="translate(0,0)" fill="rgb(0,0,0)" d="M 994.631 849.093 C 1001.84 848.932 1009.53 848.666 1016.65 848.846 C 1036.82 849.355 1030.65 874.45 1053.37 874.759 C 1074.42 875.045 1072.17 868.347 1083.63 854.358 C 1089.99 846.602 1108.73 848.573 1118.06 848.916 C 1117.22 860.588 1116.38 864.542 1111.66 875.234 C 1109.3 879.518 1105.35 885.153 1102.08 888.734 C 1090.9 900.991 1075.22 908.181 1058.64 908.657 C 1023.59 909.988 995.722 884.223 994.631 849.093 z"/>
<path transform="translate(0,0)" fill="rgb(0,0,0)" d="M 838.8 723.182 C 842.309 722.997 844.153 722.791 846.497 725.409 C 848.014 739.194 848.246 833.52 843.949 838.786 C 839.341 844.433 825.406 843.034 818.75 842.999 C 809.663 842.749 810.958 835.253 811.026 828.169 C 811.257 804.122 810.773 780.074 811.361 756.037 C 811.834 736.757 821.269 728.196 838.8 723.182 z"/>
<path transform="translate(0,0)" fill="rgb(0,0,0)" d="M 138.503 683.248 C 144.467 682.773 145.235 682.685 149.571 686.827 C 160.157 696.942 165.09 730.762 154.449 740.875 C 142.851 746.24 124.991 739.86 113.197 736.15 C 105.389 733.148 75.8313 721.05 86.2567 708.427 C 97.4242 694.905 121.542 685.974 138.503 683.248 z"/>
<path transform="translate(0,0)" fill="rgb(0,0,0)" d="M 1431.37 757.408 C 1439.78 757.165 1490.58 756.076 1494.43 758.674 C 1499.48 772.258 1486.04 789.527 1471.25 791.165 L 1404.21 791.092 C 1406.02 771.554 1409.5 760.115 1431.37 757.408 z"/>
<path transform="translate(0,0)" fill="rgb(0,0,0)" fill-rule="evenodd" d="M 235.476 688.512 C 243.914 686.971 252.529 690.083 258.033 696.661 C 263.538 703.239 265.083 712.268 262.078 720.302 C 259.074 728.335 251.984 734.135 243.514 735.487 C 230.62 737.544 218.472 728.843 216.269 715.973 C 214.067 703.104 222.632 690.859 235.476 688.512 z M 243.432 697.617 C 247.194 696.44 251.218 698.426 252.573 702.129 C 253.928 705.831 252.135 709.945 248.501 711.474 C 245.992 712.53 243.105 712.12 240.989 710.407 C 238.873 708.693 237.871 705.955 238.382 703.281 C 238.893 700.607 240.833 698.43 243.432 697.617 z"/>
<path transform="translate(0,0)" fill="rgb(0,0,0)" d="M 824.025 659.268 C 830.846 657.191 838.257 658.976 843.385 663.93 C 848.513 668.884 850.552 676.229 848.712 683.117 C 846.872 690.006 841.442 695.356 834.527 697.093 C 824.194 699.689 813.675 693.57 810.825 683.303 C 807.975 673.037 813.832 662.371 824.025 659.268 z"/>
</svg>
