<svg version="1.1" xmlns="http://www.w3.org/2000/svg" style="display: block;" viewBox="0 0 2048 2048" width="1000" height="1000" preserveAspectRatio="none">
<defs><clipPath id="round"><rect width="2048" height="2048" rx="480" ry="480"/></clipPath></defs>
<g clip-path="url(#round)">
<path transform="translate(0,0)" fill="rgb(255,255,255)" d="M 0 0 L 2048 0 L 2048 2048 L 0 2048 L 0 0 z"/>
<path transform="translate(0,0)" fill="rgb(0,0,0)" d="M 861.492 392.443 C 994.171 388.881 1130.26 434.157 1245.89 496.033 C 1298.32 524.083 1296.74 534.593 1254.88 570.998 C 1245.08 579.516 1232.62 592.181 1223.39 601.422 C 1210.76 614.053 1198.59 627.131 1186.89 640.631 C 1127.15 710.457 1073.11 793.562 1046.43 882.262 C 1037.1 913.303 1033.87 936.912 1028.14 968.487 C 1027.96 954.023 1028.44 938.497 1027.71 924.237 C 1025.43 875.197 1013.91 827.029 993.751 782.264 C 871.232 513.771 507.983 552.831 410.818 816.041 C 434.333 851.824 448.229 880.2 448.111 924.26 C 448.035 952.736 444.492 969.729 433.67 995.987 C 593.212 992.05 727.744 1054.06 827.333 1179.02 C 872.873 1236.15 910.772 1297.51 950.249 1358.84 C 990.792 1421.83 1034.23 1481.86 1082.68 1539.02 C 1118.53 1580.23 1157.14 1618.95 1198.23 1654.93 C 1209.01 1664.53 1220.04 1673.84 1231.32 1682.84 C 1241.42 1690.99 1259.68 1702.54 1261.33 1715.93 C 1262.07 1721.91 1259.22 1730.37 1254.81 1734.64 C 1177.9 1809.01 1069.59 1850.1 964.432 1861.58 C 802.763 1877.48 640.229 1822.24 514.538 1722.5 C 401.965 1633.17 317.689 1493.82 302.289 1350.19 C 291.975 1249.82 310.792 1148.6 356.489 1058.64 C 366.322 1039.32 377.967 1018.32 391.614 1001.4 C 334.302 996.946 272.651 980.855 225.081 947.432 C 212.454 938.559 193.897 925.366 196.231 908.117 C 198.548 894.148 210.388 881.685 221.72 872.855 C 270.274 835.024 335.204 806.843 397.217 805.987 C 398.624 805.922 403.049 807.275 403.407 805.027 C 407.556 778.927 411.251 755.421 418.526 729.739 C 438.048 661.862 473.093 599.458 520.89 547.46 C 609.446 452.764 731.921 397.023 861.492 392.443 z"/>
<path transform="translate(0,0)" fill="rgb(0,0,0)" d="M 1742.67 433.439 C 1745.93 433.335 1749.18 433.252 1752.44 433.191 C 1773.93 432.792 1895 437.505 1905.28 450.927 C 1907.61 453.964 1907.78 459.577 1907.77 463.191 C 1907.61 501.559 1893.15 554.093 1882.24 590.678 C 1837.01 742.387 1765.03 881.09 1652.19 993.647 C 1568.88 1076.74 1465.58 1141.54 1349.05 1164.17 C 1292.67 1175.11 1234.18 1176.87 1176.9 1176.81 C 1154.23 1176.77 1025.05 1175.1 1014.99 1165.05 C 1011.24 1161.3 1010.39 1154.16 1010.11 1149.15 C 1008.34 1117.04 1020.26 1077.02 1032.52 1047.39 C 1055.19 992.58 1087.27 942.27 1120.17 893.158 C 1174.27 811.973 1234.23 734.85 1299.57 662.403 C 1423.59 526.189 1555.2 442.25 1742.67 433.439 z"/>
<path transform="translate(0,0)" fill="rgb(0,0,0)" d="M 1272.31 1195.5 C 1304.04 1194.18 1337.75 1194.68 1369.24 1197.84 C 1479.42 1208.71 1568.49 1267.95 1636.99 1354.82 C 1736.21 1480.65 1802.29 1654.69 1802.47 1816.41 C 1802.5 1837.65 1774.1 1835.71 1758.5 1837.62 C 1689.48 1846.05 1622.99 1838.19 1555.48 1823.54 C 1464.09 1799.56 1386.05 1760.32 1308.95 1703.32 C 1181.72 1609.24 1040.99 1459.92 1012.77 1297.42 C 1009.56 1278.93 1003.54 1211.83 1013.59 1198.18 C 1021.89 1193.57 1121.72 1197.26 1139.03 1197.46 C 1183.46 1197.58 1227.89 1196.92 1272.31 1195.5 z"/>
<path transform="translate(0,0)" fill="rgb(0,0,0)" d="M 1056.14 143.218 C 1062.68 142.557 1071.6 142.539 1077.99 143.867 C 1093.42 147.081 1106.88 156.419 1115.3 169.745 C 1135.37 201.512 1118.22 230.48 1110.64 262.676 C 1103.4 289.581 1117.47 314.591 1147.67 301.489 C 1174.89 289.679 1190.39 270.072 1223.52 276.244 C 1237.27 278.926 1249.42 286.917 1257.32 298.486 C 1265.26 310.052 1268.21 324.319 1265.53 338.084 C 1260.11 365.994 1228.02 409.079 1205.51 426.684 C 1191.98 437.271 1174.72 427.774 1161.47 421.871 C 1151.16 417.281 1140.44 412.625 1129.72 408.472 C 1098.91 396.439 1067.21 386.787 1034.92 379.6 C 1000.47 369.842 959.088 365.714 923.431 362.79 C 910.734 361.747 896.573 361.174 884.099 361.067 C 874.946 360.988 837.444 364.816 832.241 359.75 C 817.659 345.554 806.292 308.717 801.134 289.508 C 794.931 266.407 796.06 238.948 809.1 218.618 C 817.893 204.903 831.895 195.362 847.877 192.195 C 877.646 186.134 899.089 207.512 913.891 230.067 C 920.175 239.643 928.809 253.698 938.287 259.654 C 944.882 263.822 952.901 265.099 960.465 263.184 C 985.466 256.958 990.068 223.287 997.372 201.576 C 1000.4 192.638 1004.45 184.08 1009.44 176.071 C 1021.55 156.837 1034.32 148.054 1056.14 143.218 z"/>
<path transform="translate(0,0)" fill="rgb(0,0,0)" d="M 696.832 824.931 C 739.402 819.522 778.298 849.642 783.716 892.211 C 789.134 934.78 759.022 973.682 716.455 979.11 C 673.874 984.538 634.957 954.416 629.537 911.834 C 624.118 869.252 654.249 830.341 696.832 824.931 z"/>
<path transform="translate(0,0)" fill="rgb(255,255,255)" d="M 725.002 854.778 C 738.218 853.42 750.015 863.076 751.294 876.3 C 752.573 889.524 742.846 901.262 729.615 902.462 C 716.495 903.652 704.877 894.025 703.608 880.912 C 702.34 867.8 711.898 856.124 725.002 854.778 z"/>
</g>
</svg>